<svg xmlns="http://www.w3.org/2000/svg" viewBox="0 0 512 512" width="512" height="512" color="#10004C" fill="currentColor">
  <title>Nutricionistas en Costa Rica — disc lockup, N knocked out — #10004C</title>
  <path fill-rule="evenodd" d="M256 0A256 256 0 1 1 256 512A256 256 0 1 1 256 0ZM322.86 123.84L316.85 124.74L311.22 126.36L305.58 129.02L300.32 132.78L255.25 177.1L214.49 215.49L214.68 215.83L215.81 215.94L259.38 215.91L267.64 216.58L275.53 218.46L282.67 221.39L290.56 226.35L295.25 230.52L301.6 238.41L305.21 245.17L308.29 253.43L310.09 262.07L310.88 272.96L310.92 358.61L311.44 363.49L312.87 370.63L314.82 376.26L317.87 382.27L322.49 388.54L329.25 394.82L336.38 399.21L343.9 402.26L352.16 404.17L356.29 404.55L401.74 404.55L402.01 404.06L402.53 200.84L401.41 188.07L399.23 177.93L394.38 165.53L388 155.02L383.83 149.76L378.83 144.54L369.44 136.91L360.43 131.65L349.91 127.52L335.26 124.33L329.25 123.76L322.86 123.84ZM111.76 110.09L111.42 110.32L111.61 111.82L115.29 132.48L117.62 141.87L121.04 152.39L123.78 159.07L128.96 168.91L132.79 174.55L137.68 180.15L141.25 183.56L146.69 187.77L154.2 192.28L157.96 194.12L171.11 198.4L188.76 202.27L195.86 204.22L200.78 205.99L206.04 208.77L201.68 198.96L197.55 191.45L189.25 179.06L184.1 172.67L175.99 164.03L166.6 155.58L147.78 141.87L154.58 144.01L165.47 148.52L174.86 153.78L183.13 159.86L190.26 166.66L194.55 171.92L199.09 178.68L203.3 186.57L206.49 194.08L213.97 215.12L209.68 179.81L206.94 166.66L204.24 158.77L200.56 150.88L195.64 143.37L190.64 137.51L185.38 132.74L179.75 128.65L174.49 125.57L165.85 121.81L155.71 118.77L145.19 116.51L119.65 112.79L115.14 111.56L111.76 110.09ZM213.93 216.06L173.36 255.05L129.79 295.35L122.88 302.64L117.32 310.53L114.76 316.57L113.41 324.42L113.64 404.58L159.84 404.55L168.85 403.42L177.12 401.09L185.38 397.33L194.21 391.29L200.78 384.86L204.24 380.39L208.11 374.01L210.21 369.5L212.69 362.36L214.19 355.98L215.13 347.71L214.38 216.24L213.93 216.06Z"></path>
</svg>